HIERARCHY
ROOT Hips
{
	OFFSET 0.000000 0.000000 0.000000
	CHANNELS 6 Xposition Yposition Zposition Zrotation Yrotation Xrotation 
	JOINT LHipJoint
	{
		OFFSET 0.000000 0.000000 0.000000
		CHANNELS 3 Zrotation Yrotation Xrotation
		JOINT LeftUpLeg
		{
			OFFSET 1.363060 -1.794630 0.839290
			CHANNELS 3 Zrotation Yrotation Xrotation
			JOINT LeftLeg
			{
				OFFSET 2.448110 -6.726130 0.000000
				CHANNELS 3 Zrotation Yrotation Xrotation
				JOINT LeftFoot
				{
					OFFSET 2.562200 -7.039590 0.000000
					CHANNELS 3 Zrotation Yrotation Xrotation
					JOINT LeftToeBase
					{
						OFFSET 0.157640 -0.433110 2.322550
						CHANNELS 3 Zrotation Yrotation Xrotation
						End Site
						{
							OFFSET 0.000000 0.000000 0.000000
						}
					}
				}
			}
		}
	}
	JOINT RHipJoint
	{
		OFFSET 0.000000 0.000000 0.000000
		CHANNELS 3 Zrotation Yrotation Xrotation
		JOINT RightUpLeg
		{
			OFFSET -1.305520 -1.794630 0.839290
			CHANNELS 3 Zrotation Yrotation Xrotation
			JOINT RightLeg
			{
				OFFSET -2.542530 -6.985550 0.000000
				CHANNELS 3 Zrotation Yrotation Xrotation
				JOINT RightFoot
				{
					OFFSET -2.568260 -7.056230 0.000000
					CHANNELS 3 Zrotation Yrotation Xrotation
					JOINT RightToeBase
					{
						OFFSET -0.164730 -0.452590 2.363150
						CHANNELS 3 Zrotation Yrotation Xrotation
						End Site
						{
							OFFSET 0.000000 0.000000 0.000000
						}
					}
				}
			}
		}
	}
	JOINT LowerBack
	{
		OFFSET 0.000000 0.000000 0.000000
		CHANNELS 3 Zrotation Yrotation Xrotation
		JOINT Spine
		{
			OFFSET 0.028270 2.035590 -0.193380
			CHANNELS 3 Zrotation Yrotation Xrotation
			JOINT Spine1
			{
				OFFSET 0.056720 2.048850 -0.042750
				CHANNELS 3 Zrotation Yrotation Xrotation
				JOINT Neck
				{
					OFFSET 0.000000 0.000000 0.000000
					CHANNELS 3 Zrotation Yrotation Xrotation
					JOINT Neck1
					{
						OFFSET -0.054170 1.746240 0.172020
						CHANNELS 3 Zrotation Yrotation Xrotation
						JOINT Head
						{
							OFFSET 0.104070 1.761360 -0.123970
							CHANNELS 3 Zrotation Yrotation Xrotation
							End Site
							{
								OFFSET 0.000000 0.000000 0.000000
							}
						}
					}
				}
				JOINT LeftShoulder
				{
					OFFSET 0.000000 0.000000 0.000000
					CHANNELS 3 Zrotation Yrotation Xrotation
					JOINT LeftArm
					{
						OFFSET 3.362410 1.200890 -0.311210
						CHANNELS 3 Zrotation Yrotation Xrotation
						JOINT LeftForeArm
						{
							OFFSET 4.983000 -0.000000 -0.000000
							CHANNELS 3 Zrotation Yrotation Xrotation
							JOINT LeftHand
							{
								OFFSET 3.483560 -0.000000 -0.000000
								CHANNELS 3 Zrotation Yrotation Xrotation
								JOINT LeftFingerBase
								{
									OFFSET 0.000000 0.000000 0.000000
									CHANNELS 3 Zrotation Yrotation Xrotation
									JOINT LeftHandIndex1
									{
										OFFSET 0.715260 -0.000000 -0.000000
										CHANNELS 3 Zrotation Yrotation Xrotation
										End Site
										{
											OFFSET 0.000000 0.000000 0.000000
										}
									}
								}
								JOINT LThumb
								{
									OFFSET 0.000000 0.000000 0.000000
									CHANNELS 3 Zrotation Yrotation Xrotation
									End Site
									{
										OFFSET 0.000000 0.000000 0.000000
									}
								}
							}
						}
					}
				}
				JOINT RightShoulder
				{
					OFFSET 0.000000 0.000000 0.000000
					CHANNELS 3 Zrotation Yrotation Xrotation
					JOINT RightArm
					{
						OFFSET -3.136600 1.374050 -0.404650
						CHANNELS 3 Zrotation Yrotation Xrotation
						JOINT RightForeArm
						{
							OFFSET -5.241900 -0.000000 -0.000000
							CHANNELS 3 Zrotation Yrotation Xrotation
							JOINT RightHand
							{
								OFFSET -3.444170 -0.000000 -0.000000
								CHANNELS 3 Zrotation Yrotation Xrotation
								JOINT RightFingerBase
								{
									OFFSET 0.000000 0.000000 0.000000
									CHANNELS 3 Zrotation Yrotation Xrotation
									JOINT RightHandIndex1
									{
										OFFSET -0.622530 -0.000000 -0.000000
										CHANNELS 3 Zrotation Yrotation Xrotation
										End Site
										{
											OFFSET 0.000000 0.000000 0.000000
										}
									}
								}
								JOINT RThumb
								{
									OFFSET 0.000000 0.000000 0.000000
									CHANNELS 3 Zrotation Yrotation Xrotation
									End Site
									{
										OFFSET 0.000000 0.000000 0.000000
									}
								}
							}
						}
					}
				}
			}
		}
	}
}
MOTION
Frames: 10
Frame Time: 0.016667
-0.680517 17.272156 -1.135086 -3.825137 5.278636 4.285031 0.319919 -5.664329 -23.711403 -14.454505 -0.632637 -2.219505 7.721693 10.492444 28.416128 -0.101430 7.053345 13.152060 0.000000 0.000000 0.000000 1.603982 -1.678269 4.785494 10.302986 -11.929412 25.813467 30.588362 0.991097 -25.696871 5.519081 -13.371965 -8.765261 0.000000 0.000000 0.000000 -5.633411 6.295958 25.080391 12.356098 6.279745 -4.495841 -7.265164 7.393509 -12.268817 1.847380 1.593460 -15.146230 1.523173 0.210914 1.369299 0.000000 0.000000 0.000000 -2.009193 7.733229 4.422782 -66.923335 -14.011453 -20.226560 -16.928534 57.339446 -0.614218 -6.130056 -3.981603 -0.307402 -6.139467 -3.974350 -0.000000 0.000000 0.000000 0.000000 0.000000 0.000000 0.000000 -5.939193 -5.799037 6.651267 64.301413 15.326464 -3.196751 35.434973 7.035333 -0.353225 -3.103167 5.833527 -0.177091 -3.124139 5.831702 -0.000000 0.000000 0.000000 0.000000 0.000000 0.000000 0.000000 
-0.328907 17.528823 -0.718016 -11.720806 -3.344896 1.197323 0.936545 -1.114191 -16.860650 -6.531431 -2.905083 -8.356205 8.897230 13.678093 36.653013 -0.305561 10.832956 18.550238 0.000000 0.000000 0.000000 -17.766396 -11.719272 -1.776108 30.055101 -17.874736 34.252620 19.169664 1.692993 -12.676629 1.058795 -13.730816 24.005008 0.000000 0.000000 0.000000 4.947336 6.584055 21.467655 7.933737 6.188413 10.926736 -6.644627 7.092615 -22.612629 2.433237 0.481169 -15.586927 0.152148 -0.094772 4.587338 0.000000 0.000000 0.000000 -10.968796 10.497600 3.322251 -61.299596 -9.357851 -3.704711 -23.710491 25.048077 -0.212123 -2.208968 -5.141997 -0.106106 -2.205254 -5.143675 0.000000 0.000000 0.000000 0.000000 0.000000 0.000000 0.000000 2.196918 -6.102789 5.965693 61.324501 15.174975 -2.034594 29.555494 7.016238 -0.218253 -2.103990 4.822138 -0.109362 -2.115700 4.821391 -0.000000 0.000000 0.000000 0.000000 0.000000 0.000000 0.000000 
0.069606 17.787310 -0.300200 -13.763299 -12.952128 -2.535933 3.145275 1.066562 -14.622869 -5.166830 -1.405170 -6.833733 8.627757 17.763531 41.217489 -0.103767 20.308001 30.707906 0.000000 0.000000 0.000000 -35.000675 -19.857956 -3.666988 40.792435 -20.588680 41.508276 10.334780 3.785984 -3.747086 -3.194850 -15.874024 50.551032 0.000000 0.000000 0.000000 17.537437 8.007753 19.732375 -9.492447 8.849397 26.555885 -1.279068 5.428774 -31.172046 6.046443 -0.196313 -14.129236 -2.665128 -0.309173 5.977049 0.000000 0.000000 0.000000 -22.344233 8.590490 1.630191 -46.900048 -8.228863 -0.890447 -24.421250 11.271598 -0.095588 0.129981 -3.158448 -0.047837 0.133007 -3.159035 0.000000 0.000000 0.000000 0.000000 0.000000 0.000000 0.000000 13.538094 -6.361547 4.327597 54.806784 14.532190 -1.642222 27.150745 8.129877 -0.145581 -1.313539 3.852906 -0.072916 -1.320444 3.852884 -0.000000 0.000000 0.000000 0.000000 0.000000 0.000000 0.000000 
0.060165 17.849495 0.162973 -12.919309 -11.678724 -1.955880 0.662857 6.802910 -9.063335 -7.507778 -5.135577 -12.077713 12.511976 14.242653 40.715105 -0.662220 15.297381 24.801114 0.000000 0.000000 0.000000 -31.137160 -23.601698 -0.393628 41.444340 -15.449752 34.345142 3.140369 1.740207 6.520270 -0.080298 -14.013215 42.078610 0.000000 0.000000 0.000000 17.171829 7.940140 10.116408 -4.880387 7.691287 44.176717 -5.266807 4.614717 -37.947347 2.066171 -0.244383 -17.369880 0.033845 -0.315742 7.404082 0.000000 0.000000 0.000000 -19.913094 10.236606 0.445872 -53.180646 -11.966775 -0.188961 -21.663743 5.630025 -0.083360 -0.640478 -3.262946 -0.041725 -0.637739 -3.263893 0.000000 0.000000 0.000000 0.000000 0.000000 0.000000 0.000000 10.985776 -8.718574 2.648225 58.083146 15.858478 -1.452519 26.800662 2.899279 -0.123590 -1.281927 3.937778 -0.061912 -1.288031 3.937573 -0.000000 0.000000 0.000000 0.000000 0.000000 0.000000 0.000000 
0.039785 17.911408 0.691405 -12.309295 -10.459844 1.875534 -1.513865 15.167967 -3.033683 -10.095765 -10.878089 -21.139915 16.952806 9.427360 39.520958 -0.990819 9.554999 19.597529 0.000000 0.000000 0.000000 -26.043972 -30.015946 5.893727 42.795794 -4.885172 22.034559 -4.087890 0.704304 19.360524 2.702977 -13.068807 34.634624 0.000000 0.000000 0.000000 14.984530 8.347722 -0.768805 -1.032719 6.096022 57.061120 -7.093401 4.070801 -40.090640 3.092035 -0.299085 -9.546665 -0.097985 -0.124456 3.048904 0.000000 0.000000 0.000000 -20.669620 12.167755 -2.252550 -54.443720 -15.695893 2.171200 -26.457986 -3.874168 -0.043892 -0.747704 -2.615957 -0.022005 -0.745440 -2.617390 -0.000000 0.000000 0.000000 0.000000 0.000000 0.000000 0.000000 9.369373 -11.437053 -0.453253 60.003217 17.972791 -0.937469 26.936714 -1.560411 -0.105857 -1.164888 3.936912 -0.053037 -1.170217 3.936714 -0.000000 0.000000 0.000000 0.000000 0.000000 0.000000 0.000000 
-0.057500 17.945760 1.072361 -10.599825 -7.790251 5.794075 -5.524359 18.054842 0.708464 -8.867111 -13.709869 -28.015721 18.054281 6.261832 36.516885 -0.771308 4.474356 15.295145 0.000000 0.000000 0.000000 -14.366023 -30.498590 13.053538 35.491689 9.375297 3.367877 -5.900528 -3.077906 31.929083 5.017510 -13.516220 24.559967 0.000000 0.000000 0.000000 9.615877 7.545538 -11.574981 3.343554 3.334241 65.501243 -7.752467 3.592080 -42.806247 3.263691 -0.472027 -7.433995 -0.324494 -0.096178 1.504478 0.000000 0.000000 0.000000 -21.274250 14.432038 -2.502683 -54.160560 -15.545625 6.579337 -30.898635 -13.695975 0.082513 -1.350026 -2.003670 0.041229 -1.350688 -2.005446 -0.000000 0.000000 0.000000 0.000000 0.000000 0.000000 0.000000 9.585825 -13.336603 -1.320455 60.563036 17.929509 0.094861 25.475038 -1.357636 -0.069301 -0.963274 3.393770 -0.034719 -0.966573 3.393668 -0.000000 0.000000 0.000000 0.000000 0.000000 0.000000 0.000000 
-0.146364 17.979917 1.434781 -6.581244 -2.863983 7.715504 -8.197108 20.074802 3.395952 -12.159898 -16.707619 -29.666793 19.540628 2.213539 32.212777 -0.748038 1.036519 14.583280 0.000000 0.000000 0.000000 0.050062 -28.440992 19.846207 14.351153 18.265150 -19.325831 -2.569288 -10.419746 41.796613 7.070137 -17.985389 20.035241 0.000000 0.000000 0.000000 2.376111 4.321891 -19.952274 7.534809 -0.618140 72.192814 -8.293656 2.492612 -44.492967 3.701682 -0.531965 -4.626626 -0.265586 0.000089 -0.878153 0.000000 0.000000 0.000000 -22.783582 16.006175 -1.757080 -52.471197 -14.853249 16.136914 -32.452666 -31.216958 0.417779 -2.494074 -0.775735 0.209276 -2.506854 -0.777261 0.000000 0.000000 0.000000 0.000000 0.000000 0.000000 0.000000 10.249280 -15.004539 -2.364205 60.813147 17.695353 1.378748 24.207386 -0.580699 -0.038873 -0.821794 2.897689 -0.019474 -0.823570 2.897710 -0.000000 0.000000 0.000000 0.000000 0.000000 0.000000 0.000000 
-0.194687 17.998043 1.711701 -4.981223 -0.337173 8.934802 -8.006355 22.340756 5.986930 -14.866276 -18.326704 -29.589601 19.786997 -0.658008 27.263561 -0.668364 -1.474421 13.753640 0.000000 0.000000 0.000000 5.671326 -28.085140 21.401629 5.870447 18.033830 -26.625208 -1.807620 -12.696515 43.511722 8.188702 -21.203409 21.622421 0.000000 0.000000 0.000000 -1.544475 2.196609 -22.867327 10.723266 -3.030061 72.503077 -7.831740 2.083625 -44.027335 5.040487 -1.034437 0.320610 -1.312786 -0.084193 -2.598566 0.000000 0.000000 0.000000 -24.791186 17.053467 -1.352424 -51.115324 -14.405640 21.762851 -31.103498 -40.084865 0.604062 -2.989025 -0.318045 0.302808 -3.010699 -0.320021 0.000000 0.000000 0.000000 0.000000 0.000000 0.000000 0.000000 11.640180 -15.562257 -3.123613 59.457814 17.350100 2.514870 23.017312 0.177447 -0.020845 -0.725661 2.534312 -0.010442 -0.726562 2.534472 0.000000 0.000000 0.000000 0.000000 0.000000 0.000000 0.000000 
-0.241964 18.015394 1.984984 -3.511774 1.836689 9.978703 -7.612686 24.016432 8.714049 -16.700451 -19.361042 -29.146162 19.263921 -3.105839 21.933562 -0.596147 -3.403753 13.436876 0.000000 0.000000 0.000000 10.627460 -26.996656 21.920604 -1.037708 16.241211 -31.249326 -1.115422 -14.741552 44.204164 9.270903 -24.778827 23.757920 0.000000 0.000000 0.000000 -5.161468 0.007190 -24.954193 13.808318 -5.141236 72.035000 -7.577741 1.729178 -43.491380 6.055186 -1.399107 5.571543 -2.011300 -0.132461 -4.129358 0.000000 0.000000 0.000000 -26.869030 17.958666 -0.661516 -49.452870 -13.971448 27.778827 -27.286281 -49.210997 0.805427 -3.494793 0.137682 0.404036 -3.527796 0.134162 0.000000 0.000000 0.000000 0.000000 0.000000 0.000000 0.000000 13.301920 -16.130800 -4.059772 57.857324 16.640816 3.805017 21.985917 0.900691 -0.004486 -0.644734 2.224208 -0.002249 -0.644948 2.224538 0.000000 0.000000 0.000000 0.000000 0.000000 0.000000 0.000000 
-0.296334 18.043939 2.190727 -2.889565 2.920129 10.584583 -7.035940 24.279527 10.460612 -16.985974 -19.252229 -28.333601 18.083300 -4.322644 17.576067 -0.569052 -4.013800 13.479931 0.000000 0.000000 0.000000 13.755371 -26.047516 22.229705 -4.779339 14.648863 -33.052543 -0.672935 -15.827894 43.708782 9.827216 -27.008687 25.275306 0.000000 0.000000 0.000000 -8.013488 -1.504691 -26.387457 16.412553 -6.727818 71.540022 -7.667792 1.607628 -43.141462 6.000662 -1.393513 7.794352 -2.090887 -0.119769 -5.007308 0.000000 0.000000 0.000000 -27.442756 18.636289 0.117765 -48.939610 -13.350121 30.753010 -23.313453 -54.431581 0.925751 -3.858229 0.484131 0.464565 -3.898486 0.478663 0.000000 0.000000 0.000000 0.000000 0.000000 0.000000 0.000000 14.180963 -16.365226 -4.394456 56.870024 15.898366 4.498076 21.624949 1.693637 0.001204 -0.619107 2.035766 0.000602 -0.619044 2.036173 0.000000 0.000000 0.000000 0.000000 0.000000 0.000000 0.000000 
